<svg version="1.2" xmlns="http://www.w3.org/2000/svg" viewBox="0 0 500 500" width="500" height="500">
	<title>5483080_2844250-svg</title>
	<defs>
		<radialGradient id="g1" cx="0" cy="0" r="1" gradientUnits="userSpaceOnUse" gradientTransform="matrix(12.925,0,0,12.925,277.52,192.379)">
			<stop offset="0" stop-color="#ffc8af"/>
			<stop offset="1" stop-color="#ffbb9c"/>
		</radialGradient>
		<radialGradient id="g2" cx="0" cy="0" r="1" gradientUnits="userSpaceOnUse" gradientTransform="matrix(19.921,-4.289,4.289,19.921,270.042,168.983)">
			<stop offset="0" stop-color="#ffc8af"/>
			<stop offset="1" stop-color="#ffbb9c"/>
		</radialGradient>
		<radialGradient id="g3" cx="0" cy="0" r="1" gradientUnits="userSpaceOnUse" gradientTransform="matrix(8.126,0,0,8.126,249.963,387.548)">
			<stop offset="0" stop-color="#ffc8af"/>
			<stop offset="1" stop-color="#ffbb9c"/>
		</radialGradient>
		<radialGradient id="g4" cx="0" cy="0" r="1" gradientUnits="userSpaceOnUse" gradientTransform="matrix(7.401,0,0,7.401,198.499,389.586)">
			<stop offset="0" stop-color="#ffc8af"/>
			<stop offset="1" stop-color="#ffbb9c"/>
		</radialGradient>
		<radialGradient id="g5" cx="0" cy="0" r="1" gradientUnits="userSpaceOnUse" gradientTransform="matrix(41.444,0,0,41.444,243.561,250.697)">
			<stop offset="0" stop-color="#ffc8af"/>
			<stop offset="1" stop-color="#ffbb9c"/>
		</radialGradient>
		<radialGradient id="g6" cx="0" cy="0" r="1" gradientUnits="userSpaceOnUse" gradientTransform="matrix(41.444,0,0,41.444,243.561,250.697)">
			<stop offset="0" stop-color="#ffc8af"/>
			<stop offset="1" stop-color="#ffbb9c"/>
		</radialGradient>
		<linearGradient id="g7" x2="1" gradientUnits="userSpaceOnUse" gradientTransform="matrix(.003,63.3,-26.427,.001,383.869,298.773)">
			<stop offset="0" stop-color="#606bf1"/>
			<stop offset="1" stop-color="#58479f"/>
		</linearGradient>
		<linearGradient id="g8" x2="1" gradientUnits="userSpaceOnUse" gradientTransform="matrix(26.719,57.385,-23.958,11.155,333.66,303.912)">
			<stop offset="0" stop-color="#606bf1"/>
			<stop offset="1" stop-color="#58479f"/>
		</linearGradient>
		<linearGradient id="g9" x2="1" gradientUnits="userSpaceOnUse" gradientTransform="matrix(19.194,75.95,-31.709,8.013,354.588,285.12)">
			<stop offset="0" stop-color="#606bf1"/>
			<stop offset="1" stop-color="#58479f"/>
		</linearGradient>
	</defs>
	<style>
		.s0 { fill: #dae8ef } 
		.s1 { fill: #ccd9e2 } 
		.s2 { fill: #bcced8 } 
		.s3 { fill: #112b46 } 
		.s4 { fill: #1d262d } 
		.s5 { fill: #606bf1 } 
		.s6 { fill: #fbd15b } 
		.s7 { fill: #ff8578 } 
		.s8 { fill: #f9fbfc } 
		.s9 { fill: #f1f2f2 } 
		.s10 { fill: url(#g1) } 
		.s11 { fill: url(#g2) } 
		.s12 { fill: #f7b094 } 
		.s13 { fill: #3d3d7a } 
		.s14 { fill: #0a2033 } 
		.s15 { fill: #30475e } 
		.s16 { fill: url(#g3) } 
		.s17 { fill: #56548c } 
		.s18 { fill: url(#g4) } 
		.s19 { fill: #f4675d } 
		.s20 { fill: url(#g5) } 
		.s21 { fill: #e8987c } 
		.s22 { fill: url(#g6) } 
		.s23 { fill: #6d4b35 } 
		.s24 { fill: #abb5ba } 
		.s25 { fill: #8495a0 } 
		.s26 { fill: none } 
		.s27 { fill: #141b56 } 
		.s28 { fill: #a5b7c6 } 
		.s29 { fill: url(#g7) } 
		.s30 { fill: #747ded } 
		.s31 { fill: url(#g8) } 
		.s32 { fill: url(#g9) } 
		.s33 { fill: #95a8b5 } 
	</style>
	<g id="BACKGROUND">
		<g id="Layer">
			<path id="Layer" class="s0" d="m465.7 304.6l-15.8 110.7h-400.9l-11.8-84.5c-1.4-9.4 3.9-18.6 12.7-22.3l35.6-14.7v-35.4c0-10.4 7.6-19.3 17.9-20.8l8.4-1.2 14.2-47.8c2.6-8.9 10.8-15 20.1-15h144.6c5.5 0 10.5 2.1 14.3 5.6 3.7 3.5 6.2 8.3 6.6 13.8l68.8 7.3c10.2 1.1 18.2 9.4 18.8 19.6l2.8 47.8 48.6 13.7c10.1 2.9 16.6 12.8 15.1 23.2z"/>
			<path id="Layer" class="s1" d="m73 327.4l12.5 87.9h318.3l9.4-67c1-7.6-3.1-14.8-10.1-17.7l-28.3-11.8v-28.1c0-8.2-6-15.2-14.2-16.4l-6.7-1-11.2-38c-2.1-7-8.6-11.9-16-11.9h-114.7c-4.4 0-8.4 1.7-11.4 4.5-3 2.7-4.9 6.6-5.3 11l-54.6 5.7c-8.1 0.9-14.4 7.5-14.9 15.6l-2.2 37.9-38.6 10.9c-8 2.3-13.1 10.2-12 18.4z"/>
			<path id="Layer" class="s2" d="m335.6 382.5c0-9.4-7-17.5-16.3-18.8l-7.7-1.1-12.8-43.5c-2.4-8.1-9.9-13.6-18.3-13.6h-131.3c-5 0-9.6 1.9-13 5.1-3.4 3.2-5.7 7.6-6 12.6l-56.9 6 12.3 86.1h251.4l-1.4-0.6c0 0 0-32.2 0-32.2z"/>
		</g>
	</g>
	<g id="OBJECTS">
		<g id="Layer">
			<g id="Layer">
				<g id="Layer">
					<g id="Layer">
						<path id="Layer" class="s3" d="m120.2 99.1h97.6v91.1h-97.6z"/>
					</g>
					<g id="Layer">
						<path id="Layer" class="s4" d="m120.2 99.1h97.6v9.6h-97.6z"/>
					</g>
					<g id="Layer">
						<g id="Layer">
							<path id="Layer" class="s5" d="m196.7 104c0 1-0.8 1.8-1.8 1.8-0.9 0-1.7-0.8-1.7-1.8 0-0.9 0.8-1.7 1.7-1.7 1 0 1.8 0.8 1.8 1.7z"/>
						</g>
						<g id="Layer">
							<path id="Layer" class="s6" d="m204.1 104c0 1-0.8 1.8-1.8 1.8-1 0-1.8-0.8-1.8-1.8 0-0.9 0.8-1.7 1.8-1.7 1 0 1.8 0.8 1.8 1.7z"/>
						</g>
						<g id="Layer">
							<path id="Layer" class="s7" d="m210.9 104.2c0 1-0.8 1.8-1.8 1.8-0.9 0-1.7-0.8-1.7-1.8 0-0.9 0.8-1.7 1.7-1.7 1 0 1.8 0.8 1.8 1.7z"/>
						</g>
					</g>
					<g id="Layer">
						<g id="Layer">
							<g id="Layer">
								<path id="Layer" class="s7" d="m137.6 117.7h13.8v1.2h-13.8z"/>
							</g>
							<g id="Layer">
								<path id="Layer" class="s6" d="m153.8 117.7h13.8v1.2h-13.8z"/>
							</g>
							<g id="Layer">
								<path id="Layer" class="s5" d="m141.9 124h21.4v1.1h-21.4z"/>
							</g>
							<g id="Layer">
								<path id="Layer" class="s7" d="m166.8 124h10.9v1.1h-10.9z"/>
							</g>
							<g id="Layer">
								<path id="Layer" class="s6" d="m149.3 130.2h9.4v1.2h-9.4z"/>
							</g>
							<g id="Layer">
								<path id="Layer" class="s6" d="m164.1 130.2h31.3v1.2h-31.3z"/>
							</g>
							<g id="Layer">
								<path id="Layer" class="s5" d="m156.6 136.5h35.7v1.1h-35.7z"/>
							</g>
							<g id="Layer">
								<path id="Layer" class="s7" d="m147.7 142.7h11v1.2h-11z"/>
							</g>
							<g id="Layer">
								<path id="Layer" class="s5" d="m163.4 142.7h10.9v1.2h-10.9z"/>
							</g>
						</g>
						<g id="Layer">
							<g id="Layer">
								<path id="Layer" class="s7" d="m137.6 175.2h16v1.1h-16z"/>
							</g>
							<g id="Layer">
								<path id="Layer" class="s6" d="m159.1 175.2h16v1.1h-16z"/>
							</g>
							<g id="Layer">
								<path id="Layer" class="s7" d="m180.1 175.2h16v1.1h-16z"/>
							</g>
							<g id="Layer">
								<path id="Layer" class="s5" d="m141.9 168.9h31.2v1.2h-31.2z"/>
							</g>
							<g id="Layer">
								<path id="Layer" class="s7" d="m177.9 168.9h31.3v1.2h-31.3z"/>
							</g>
							<g id="Layer">
								<path id="Layer" class="s7" d="m149.3 162.7h31v1.1h-31z"/>
							</g>
							<g id="Layer">
								<path id="Layer" class="s6" d="m183 162.7h8.6v1.1h-8.6z"/>
							</g>
							<g id="Layer">
								<path id="Layer" class="s6" d="m147.3 156.4h11.6v1.2h-11.6z"/>
							</g>
							<g id="Layer">
								<path id="Layer" class="s5" d="m165.1 156.4h11.7v1.2h-11.7z"/>
							</g>
							<g id="Layer">
								<path id="Layer" class="s7" d="m184.3 156.4h11.6v1.2h-11.6z"/>
							</g>
							<g id="Layer">
								<path id="Layer" class="s6" d="m160.8 150.2h16.3v1.1h-16.3z"/>
							</g>
							<g id="Layer">
								<path id="Layer" class="s5" d="m138.3 150.2h16.3v1.1h-16.3z"/>
							</g>
						</g>
					</g>
					<g id="Layer">
						<g id="Layer">
							<g id="Layer">
								<path id="Layer" class="s8" d="m128.5 116.6h1.5v1.5h-1.5z"/>
							</g>
						</g>
						<g id="Layer">
							<g id="Layer">
								<path id="Layer" class="s8" d="m130 171.1h-1.5v-3h1.5zm0-7.6h-1.5v-3h1.5zm0-7.6h-1.5v-3h1.5zm0-7.6h-1.5v-3h1.5zm0-7.6h-1.5v-3h1.5zm0-7.6h-1.5v-3.1h1.5zm0-7.5h-1.5v-3.1h1.5z"/>
							</g>
						</g>
						<g id="Layer">
							<g id="Layer">
								<path id="Layer" class="s8" d="m128.5 175.7h1.5v1.5h-1.5z"/>
							</g>
						</g>
					</g>
				</g>
				<g id="Layer">
					<g id="Layer">
						<path id="Layer" class="s7" d="m238.8 79.8h80.3v49.5h-80.3z"/>
					</g>
					<g id="Layer">
						<path id="Layer" class="s8" d="m270 99.7l-9.6 4.1 9.6 4-1.3 2.9-11.4-5.1v-3.6l11.4-5.1z"/>
						<path id="Layer" class="s8" d="m284.1 90.3l-7 26.6-3.3-0.8 7-26.6z"/>
						<path id="Layer" class="s8" d="m300.6 102v3.6l-11.4 5.1-1.3-2.9 9.6-4-9.6-4.1 1.3-2.8z"/>
					</g>
				</g>
				<g id="Layer">
					<g id="Layer">
						<path id="Layer" class="s5" d="m316.3 175.7h45.8v32.6h-45.8z"/>
					</g>
					<g id="Layer">
						<path id="Layer" class="s9" d="m335.5 182.7c-1.5 0-2 0.4-2 1.5v4.9c0 2-0.8 2.5-2.1 2.9 1.3 0.4 2.1 0.9 2.1 2.8v4.9c0 1.1 0.5 1.5 2 1.5v2.2c-3.7 0-4.8-1.2-4.8-3.7v-4.6c0-1.4-0.3-1.9-1.5-1.9v-2.4c1.2 0 1.5-0.6 1.5-1.9v-4.6c0-2.5 1.1-3.7 4.8-3.7z"/>
						<path id="Layer" class="s9" d="m347.7 184.3v4.6c0 1.3 0.4 1.9 1.6 1.9v2.4c-1.2 0-1.6 0.5-1.6 1.9v4.6c0 2.5-1 3.7-4.7 3.7v-2.2c1.4 0 1.9-0.4 1.9-1.5v-4.9c0-1.9 0.8-2.4 2.1-2.8-1.3-0.4-2.1-0.9-2.1-2.9v-4.9c0-1.1-0.5-1.5-1.9-1.5v-2.1c3.7 0 4.7 1.2 4.7 3.7z"/>
					</g>
				</g>
				<g id="Layer">
					<g id="Layer">
						<path id="Layer" class="s6" d="m89.2 86.9h51.3v34.3h-51.3z"/>
					</g>
					<g id="Layer">
						<g id="Layer">
							<path id="Layer" fill-rule="evenodd" class="s8" d="m118.7 96c2.9 2.9 3.3 7.4 1.1 10.6l5.4 5.4c0.2 0.3 0.2 0.6 0 0.9l-1.5 1.5c-0.3 0.2-0.6 0.2-0.9 0l-5.4-5.4c-3.4 2.3-8.3 1.8-11.1-1.7-2.5-3-2.6-7.5-0.1-10.6 3.2-4 9-4.2 12.5-0.7zm-1.7 1.8c-2.3-2.4-6.1-2.4-8.4 0-2.4 2.3-2.4 6.1 0 8.4 2.3 2.3 6.1 2.3 8.4 0 2.3-2.3 2.3-6.1 0-8.4z"/>
						</g>
					</g>
				</g>
				<g id="Layer">
					<g id="Layer">
						<path id="Layer" class="s10" d="m289.8 192.9c-0.1 1.2-1.6 13-13.8 13-12.8 0-10.7-12.7-10.7-12.7 1.3-0.3 2.6-0.4 4-0.2v-6l14.5-8.1h0.6v13.9c0 0 2.3-0.2 5.4 0.1z"/>
						<g id="Layer">
							<g id="XMLID_43_">
								<g id="Layer">
									<path id="Layer" class="s11" d="m282.8 152.1c2 2.1 3.6 4.8 4.3 8.1 1.4 6.1 0.1 12.7-1.7 18.6-0.3 1-0.6 2-1.2 2.9-0.5 0.6-1.1 1.1-1.6 1.6q-3.9 3.3-7.8 6.7c-1.7 1.5-12.5 2.8-14.5 1.4-7.9-5.7-9.4-22.1-7.8-30.4 2.6-13.9 20.4-18.9 30.3-8.9z"/>
								</g>
							</g>
							<path id="Layer" class="s12" d="m278.3 169.9c0.1-1.4 1.5-2.8 2.9-1.9 1.4 0.8 1.1 3.2 0.5 4.5-0.5 1.1-2 2.2-3.1 1.2-0.8-0.8 0.5-1.7 0.6-2.4 0-0.7-1.3-1.2-0.8-1.9"/>
							<path id="Layer" class="s12" d="m278.6 176.1c1.4 0.4 3.9-0.7 4.5-2.7 0.6-2 0.5-4.3 0.5-4.3 0 0 0.8 1.8 0.4 4.7-0.4 3-1.4 5.7-3.7 5.8-2.3 0-1.7-3.5-1.7-3.5z"/>
							<path id="Layer" class="s13" d="m276.8 174q0 0-0.1 0c-0.9 0.2-1.3-0.9-1.4-1.6-0.3-1.6-0.3-3.2-0.3-4.8 0-0.4 0-0.9-0.2-1.2-0.5-1.2-1.8-1.9-2.2-3.1-0.5-1.4 0.8-2.8 0.3-4.3-0.8-2.3-3.8-2.8-5.9-2.8-3.2 0-6.4 0.6-9.5 1.1-3.4 0.6-7.7 1-10.6-1.1-3.6-2.5-5.1-9.2-2.4-12.8 1.4-2 4.2-3.1 6.6-3.2 2.5 0 4.7 1.5 7 2.3 1.9 0.6 3.7-1.2 5.4-1.5 2.2-0.5 3.2 1.9 5.1 2 1.9 0 3.7-1.4 5.6-1.8 3.6-0.6 3.4 3 5.8 4.3 1.6 0.8 3.5 0.3 5.1 1.1 1.1 0.6 1.3 1.6 1.6 2.8 0.2 1.1 0.2 2.3 0.5 3.2 0.3 0.9 1.1 1.5 1.7 2.2 0.6 0.7 1 1.6 1.3 2.6 0.7 2.1 0.9 4.3 0.7 6.5-0.3 3.7-1.5 7.3-2.8 10.8-0.8 2.3-1.1 4.6-2.3 6.7-0.3 0.6-1.8 2.3-2.3 1-0.1-0.2-0.1-0.5-0.1-0.8 0.2-2.3 2.3-17.3-3.3-15.5-1.2 0.4-2 1.4-2.5 2.5-0.5 1.3-0.5 2.7-0.5 4.1q0 0.3 0 0.6c0 0.3 0 0.6-0.3 0.7z"/>
						</g>
					</g>
					<path id="Layer" class="s12" d="m269.3 191.6c6.5-1 10.7-6.1 10.7-6.1 0 0-1.7 8.6-11 9z"/>
					<g id="Layer">
						<path id="Layer" class="s14" d="m279.9 308.6h9.3v88.5c0 0.9-0.8 1.6-1.7 1.6h-6c-0.8 0-1.6-0.7-1.6-1.6z"/>
						<path id="Layer" class="s15" d="m259.2 309.8h50.7v1.4c0 3.5-2.8 6.3-6.3 6.3h-38.1c-3.5 0-6.3-2.8-6.3-6.3z"/>
						<g id="Layer">
							<path id="Layer" class="s14" d="m279.9 388.2h9.3v20.5c0 0.9-0.8 1.7-1.7 1.7h-6c-0.8 0-1.6-0.8-1.6-1.7z"/>
							<path id="Layer" class="s14" d="m236.7 405c0 2.9 2.4 5.4 5.4 5.4 2.9 0 5.4-2.5 5.4-5.4 0-3-2.5-5.4-5.4-5.4-3 0-5.4 2.4-5.4 5.4z"/>
							<path id="Layer" class="s14" d="m321.6 405c0 2.9 2.4 5.4 5.4 5.4 3 0 5.4-2.5 5.4-5.4 0-3-2.4-5.4-5.4-5.4-3 0-5.4 2.4-5.4 5.4z"/>
							<path id="Layer" class="s15" d="m293.8 397.6h-18.5v-16.3h18.5z"/>
							<path id="Layer" class="s6" d="m236.7 401.4h95.7v-1.9c0-3.2-2.6-5.7-5.7-5.7h-84.3c-3.2 0-5.7 2.5-5.7 5.7 0 0 0 1.9 0 1.9z"/>
						</g>
						<path id="Layer" class="s15" d="m281.3 319.4h3.2v60.5h-3.2z"/>
					</g>
					<path id="Layer" class="s6" d="m320.8 244.4c-2.2-0.1-4 1.8-3.9 4 0.6 11-1.7 37.8-11.9 46.9-12.5 11.2-48 9.7-48 9.7 0 0-5.9 7.2 5.8 8.8 11.8 1.6 44.8 0.5 52.8-7 7.7-7.2 12.3-26.1 8.8-59-0.2-1.9-1.7-3.3-3.6-3.4z"/>
					<g id="XMLID_42_">
						<g id="Layer">
							<path id="Layer" class="s16" d="m254.3 379.9l4.2 9.6-12.9 5.7-4.2-9.7z"/>
							<path id="Layer" class="s17" d="m315.3 273c-0.8 1.6-58.3 0-63.7 0.5 0 0-35.1 16.8-40.2 32.5-0.5 1.6-0.6 3.7-0.5 6.2 1.4 22.1 26.6 75 26.6 75l3.9-1.7 12.9-5.6 1.9-0.8c0 0-20-59.5-16-62.7 4-3.2 49.2-11.2 64.9-15.4 15.8-4.3 10.2-28 10.2-28z"/>
							<path id="Layer" class="s18" d="m205 382.4l1.1 14.4h-14.2l-1-14.5z"/>
							<path id="Layer" class="s13" d="m251.3 273l-0.5 0.3c0 0-58.8 8.2-68.4 24.7-6.2 10.8 5.8 89.2 5.8 89.2l20.8 0.1c0 0-3.1-65.4-2-69 1.1-4.2 3.1-5.7 3.9-6.1-0.1-2.5 0-4.6 0.5-6.2 5.1-15.7 40.2-32.5 40.2-32.5q-0.1-0.1-0.3-0.5z"/>
							<path id="Layer" class="s7" d="m308.2 218.7l-4 0.5c0 0-0.9 10.6-3.3 21.3l-49.1 18.6-0.7 3.6q-0.3 0-0.6 0 0 1.1 0 2.1c0.1 4.1 0.4 7 0.8 8.2q0.2 0.4 0.3 0.5c1.4 1.1 18.8-1 37.6 5.9 16.3 6 25.4 12.5 25.8 11.7 5.1-10.7-4.2-52.5-6.8-72.4z"/>
							<path id="Layer" class="s19" d="m303 243c-1.3 6.3-4.7 18.9-11.3 20.5-8.7 2.2-25.5 2.1-41.2 1.3q0-1 0-2.1 0.3 0 0.6 0l0.7-3.6 49.1-18.6c2.4-10.7 3.3-21.3 3.3-21.3q0 0 0 0.2c0.1 1.6 0.8 14.3-1.2 23.6z"/>
							<path id="Layer" class="s19" d="m253.8 203c-0.9 1.6-2.2 18.6-2.9 35.6l-10-9.4c4.3-8.2 12.9-26.2 12.9-26.2z"/>
							<path id="Layer" class="s12" d="m247.7 251c-8.4 1.5-16.2 2.7-16.2 2.7l-0.1 0.5c-9.4-7.6-23.8-28.9-23.8-28.9 0 0 4.3-5.2 5.4-6.6 0.2-0.2 23.6 16 24.8 15.8 0.3 0 1.5-2.1 3.1-5.3l10 9.4c-0.1 4.1-0.3 8.1-0.3 11.9q-1.4 0.3-2.9 0.5z"/>
							<path id="Layer" class="s20" d="m231.5 253.7l-0.2 7h-25.6c0 0 2.5-9.9 9.4-9.9 7 0 9.6 3.6 9.6 3.6z"/>
							<path id="Layer" class="s12" d="m212.8 218.6l0.2 0.1c-1.1 1.4-5.4 6.6-5.4 6.6l-2.6-1.9c0 0-3 1.8-6.4-0.1-3.5-1.9-1.3-6.6-1.2-7.1-0.7 0.2-4.9 3.6-5.6 3.3-0.7-0.4-1.2-1.6 3.6-6.3 4.8-4.7 11.3 1.3 11.5 1.3z"/>
							<path id="Layer" class="s12" d="m199.2 222.5c0 0-1.1 1.9 0.8 2.8 1.8 0.8 5.4 1.4 6.9 1.3 1.5-0.2 2.7-2.3 2.7-2.3l-4.6-4.4h-3.7z"/>
							<path id="Layer" class="s21" d="m198.9 223.4c0.3-0.9 2.9-0.4 4.5-0.4 1.2 0.1 1.9-0.2 2.3-1.2 0.3-0.9-1.4-2.3-1.8-1.9-0.3 0.5 0.7 1.1 0.7 1.7 0 0.6-1.7 0.8-3.1 0.8-1.3 0-3.6 0.4-3.6 0.4z"/>
						</g>
					</g>
					<path id="Layer" class="s22" d="m298.4 249.6l-25-8.9c-1.8 3.4-3.8 6-5.7 6.5-2.9 0.7-10 2.1-17.1 3.3q-1.4 0.3-2.9 0.5c-8.4 1.5-16.2 2.7-16.2 2.7l-0.1 0.5v0.2l-0.1 6.3v1.6c0 0 8.5-0.4 19.2 0.4 15 1 34.3 1.7 40.7-1.3 3-1.5 5.4-6.1 7.3-11.9q0 0-0.1 0.1z"/>
					<path id="Layer" class="s12" d="m273.4 240.7l25 8.9-1.1 3.3-24.8-10.6z"/>
					<path id="Layer" class="s7" d="m273.4 240.7c-1.8 3.4-3.8 6-5.7 6.5-2.9 0.7-10 2.1-17.1 3.3 0-3.8 0.2-7.8 0.3-11.9 0.7-17 2-34 2.9-35.6 1.4-2.7 5.3-8.5 11.5-9.8 0 0-2.1 12.7 10.7 12.7 12.2 0 13.7-11.8 13.8-13 6.3 0.7 15.9 3.9 17.2 16.4 0.3 2.5 0.7 5.7 1.2 9.4l-4 0.5c0 0-1.6 17.7-5.7 30.3q0 0-0.1 0.1z"/>
					<path id="Layer" class="s23" d="m273.1 238.4l10-24.2-7.3 25.2z"/>
					<path id="Layer" class="s7" d="m289.8 192.9h-5.4c0 0-7.8 8.5-12.8 8.5-4.9 0-2.3-8.4-2.3-8.4h-2.4c-7 0-12.8 5.2-13.6 12.2q-0.2 1.2-0.3 2.2c-0.5 5.1 20.3 8.9 20.3 8.9l10.8-0.6 6.5-12.7 1.3-5.3z"/>
					<g id="Layer">
						<g id="Layer">
							<g id="XMLID_39_">
								<g id="Layer">
									<path id="Layer" class="s9" d="m224.1 406.3c0.5 2.6 2.3 4.4 4.9 3.9l34.7-6.4c0.9-0.2 1.4-1 1.3-1.9l-0.6-3.1c0 0-36.5 6.4-40.3 7.4z"/>
									<path id="Layer" class="s13" d="m234.4 397.5q0.5-0.4 1.1-0.9 1-0.9 2-1.8 0.5-0.5 1-0.9 1-0.9 1.8-1.6 0.6-0.5 1.1-1 0.9-0.8 1.4-1.3c0.3-0.2 0.7-0.2 1 0 1.4 1.2 6.1 4 14.4-1.2 0.4-0.3 0.9-0.1 1.1 0.3l5.1 9.7c0 0-36.5 6.4-40.3 7.4 1.2-0.7 5.9-4.8 10.3-8.7z"/>
								</g>
							</g>
						</g>
					</g>
					<g id="Layer">
						<g id="Layer">
							<g id="XMLID_44_">
								<g id="Layer">
									<path id="Layer" class="s9" d="m169.4 405.9c0.1 2.7 1.6 4.8 4.2 4.7l35.3-0.8c0.9-0.1 1.6-0.8 1.6-1.7l-0.1-3.1c0 0-37 0.5-41 0.9z"/>
									<path id="Layer" class="s13" d="m181 398.9q0.6-0.3 1.2-0.7 1.2-0.8 2.3-1.5 0.6-0.4 1.2-0.7 1.1-0.7 2-1.3 0.6-0.4 1.2-0.8 1-0.6 1.6-1c0.3-0.2 0.7-0.2 1 0.1 1.2 1.4 5.3 4.9 14.4 1.1 0.4-0.2 0.9 0 1.1 0.5l3.4 10.4c0 0-37 0.5-41 0.9 1.4-0.6 6.6-3.8 11.6-7z"/>
								</g>
							</g>
						</g>
					</g>
					<g id="Layer">
						<path id="Layer" class="s24" d="m144.3 262.3l-18.8-50.2h53.6l18.9 50.2z"/>
						<path id="Layer" class="s25" d="m201.3 262.3h-3.3l-18.9-50.2 3 0.1 17.5 45.5z"/>
						<path id="Layer" class="s26" d="m128.4 256.9h0.2 67.3"/>
						<g id="Layer">
							<path id="Layer" class="s25" d="m200.3 262.3h35.4l-0.1-3.1c0 0-35.5 0-36.1 0"/>
						</g>
					</g>
					<g id="Layer">
						<g id="Layer">
							<path id="Layer" class="s25" d="m342.8 271.9h8.5v140.3h-8.5z"/>
						</g>
						<g id="Layer">
							<path id="Layer" class="s24" d="m296.4 271.9h8.6v140.3h-8.6z"/>
						</g>
						<g id="Layer">
							<path id="Layer" class="s25" d="m148 271.9h8.5v140.3h-8.5z"/>
						</g>
						<g id="Layer">
							<path id="Layer" class="s24" d="m101.7 271.9h8.5v140.3h-8.5z"/>
						</g>
						<path id="Layer" class="s27" d="m359.8 272.5h-266.3c-2.3 0-4.2-1.9-4.2-4.2v-1.8c0-2.3 1.9-4.2 4.2-4.2h266.3c2.3 0 4.2 1.9 4.2 4.2v1.8c0 2.3-1.9 4.2-4.2 4.2z"/>
					</g>
					<path id="Layer" class="s25" d="m134.4 217.4l1 2.4h10.6l-0.9-2.4z"/>
					<path id="Layer" class="s21" d="m240.9 229.2l-0.8 1.5 10.8 11.2v-3.3z"/>
				</g>
			</g>
			<g id="Layer">
				<path id="Layer" class="s28" d="m29.7 410.4h432v9.8h-432z"/>
				<g id="Layer">
					<g id="Layer">
						<path id="Layer" class="s29" d="m393.2 337.2c-1.7 8.3-1.2 22.5-12.2 24.8-3 0.6-5.9-1.5-7.6-3.8-2.2-3.1-2.8-9.6-2.7-13.4 0-2.9 1-6.2 1.3-9.2 0.4-3.2 0.7-6.5 1-9.7 1.4-11.6 7.5-21.3 17.7-27.1 0.8 3.8 2.6 7 4.2 10.7 0.7 1.6 1.4 3.4 1.9 5.1 0.8 3.1-0.2 6.3-1 9.2-1.1 4.4-1.7 9-2.6 13.4z"/>
						<path id="Layer" class="s30" d="m379.1 362.2q0.1-1 0.3-2c1.3-0.1 2.6-0.8 3.8-1.4 1.9-1 3.4-2.4 4.9-3.9 0.1-0.1 0-0.2-0.1-0.2-1.5 1.3-3.1 2.5-4.9 3.4-1 0.4-2.4 1.2-3.6 1.3q0.1-1.2 0.3-2.5c1.4-0.1 2.7-1 3.8-1.7 2-1.2 3.7-2.7 5.5-4.2 0 0 0 0-0.1 0-2.7 2-5.7 4.7-9.1 5.4q0.3-1.6 0.6-3.2 0.1 0 0.1-0.1c3.9-1 6.6-4.1 9.6-6.6 0 0 0-0.1-0.1-0.1-2.9 2.3-5.7 5-9.4 6.1q0.5-2.2 1-4.4c3.5-1.4 6.4-3.4 8.9-6.3 0-0.1 0-0.2-0.1-0.1-2.6 2.7-5.4 4.2-8.7 5.7q0.5-2.1 1-4.3c1.5-0.8 3.2-1.3 4.6-2.2 1.4-1 2.6-2.2 3.5-3.7 0.1 0 0-0.1-0.1 0-2 2.8-5 3.7-7.9 5.2q0.5-2 0.8-4.1c3.2-1.8 6.8-3.4 8.6-6.8 0-0.1 0-0.1-0.1-0.1-1.9 3.2-5.3 4.5-8.4 6.2q0.1-0.3 0.1-0.7 0.3-1.9 0.6-3.8c1.9-0.7 3.6-1.8 5.3-2.9 1.2-0.8 2.5-1.5 3.3-2.7 0-0.1-0.1-0.2-0.2-0.1-1.7 2.5-5.5 3.9-8.3 5.1q0.3-1.9 0.5-3.8c3.2-1.9 6.8-2.9 8.7-6.3 0.1-0.1-0.1-0.2-0.1-0.1-2 3.1-5.5 4-8.5 5.8q0.2-1.2 0.4-2.4c3.3-1.2 7.2-4.1 9-7.1 0.1-0.2-0.1-0.3-0.2-0.2-1.8 2.7-5.5 5.6-8.7 6.7q0.3-2 0.6-3.9 0 0 0.1-0.1c1.5-0.4 3-1.5 4.3-2.3 1.5-1 3-2.1 4-3.7 0.1-0.2-0.2-0.3-0.3-0.2-1.5 2.7-5 4.5-7.9 5.5q0.1-0.7 0.2-1.4 0.2-1 0.4-2.1c1.2-0.8 2.8-1.2 4-2.1 1-0.8 1.9-1.7 2.8-2.6 0.1-0.1 0-0.2-0.1-0.2-1.2 1.2-2.5 2.3-3.9 3.1-0.9 0.4-1.8 0.7-2.6 1.2q0.3-1.8 0.7-3.5 0 0 0 0 0 0 0.1 0 0.1 0 0.2 0c1.6-0.4 2.8-1.8 3.9-3 0.1-0.1 0-0.1 0-0.1-1.2 1.1-2.5 2.3-4 2.7q0 0 0 0-0.1 0-0.1 0 0.2-1.4 0.5-2.8c0.1 0 0.2-0.1 0.2-0.3 0.8-0.5 1.6-1.3 2.3-2 0.1-0.1 0-0.1 0-0.1-0.8 0.7-1.6 1.2-2.4 1.7q0.4-2.9 0.6-5.8c0-0.2-0.2-0.2-0.3 0q-0.2 2.8-0.7 5.6c-0.9-1.2-1.9-2.4-2.5-3.8 0-0.1-0.1 0-0.1 0.1 0.3 0.8 0.7 1.5 1.2 2.3 0.4 0.6 0.7 1.4 1.3 2q-0.3 1.5-0.6 3c-1.1-0.2-2.1-0.4-3-1.2-1.1-0.9-1.8-2.3-1.9-3.7 0-0.2-0.3-0.2-0.3 0 0.2 1.3 0.7 2.6 1.6 3.6 1 1.1 2.2 1.4 3.5 1.7q-0.4 1.7-0.7 3.5c-1-0.6-2-1.4-2.9-2.1-1.4-1.2-2.3-2.6-3.5-3.9-0.2-0.1-0.4 0.1-0.2 0.2 1.1 1.3 1.9 2.6 3.3 3.8 0.9 0.8 2 1.8 3.2 2.4q-0.1 0.1-0.1 0.2 0 0 0 0c-0.1 0.1-0.1 0.2 0 0.2q-0.4 1.7-0.8 3.3 0 0.2 0 0.3c-2.6-1.2-6.4-3.3-6.7-6.2-0.1-0.3-0.5-0.2-0.4 0.1 0.7 3.3 4.4 4.8 7 6.6q-0.4 1.9-0.7 3.8c-1.7-0.6-3.2-1.3-4.6-2.4-1.3-1-3.1-2.2-3.6-3.8-0.1 0-0.1 0-0.1 0.1 0.5 1.5 2.1 2.6 3.3 3.6 1.5 1.4 3 2.5 4.9 3q0 0.1 0 0.2-0.2 1.2-0.4 2.4c-3.1-0.2-7.5-2.6-9.1-5q0 0 0 0.1c1.1 1.8 2.7 2.8 4.6 3.7 1.4 0.7 2.9 1.5 4.4 1.6q-0.3 2.2-0.6 4.4c-1.4-0.5-2.8-0.7-4.1-1.2-2-0.8-3.5-2.3-4.7-4-0.1-0.1-0.3 0-0.2 0.1 2.2 3.4 5.3 4.4 8.9 5.7q-0.3 1.8-0.6 3.6c-3-0.6-6.8-2.4-8.3-5-0.1-0.2-0.4 0-0.3 0.2 1 1.7 2.6 2.7 4.3 3.5 1.2 0.6 2.8 1.7 4.2 1.8q0 0 0 0.1-0.4 2.6-1 5.2c-3.3-0.9-5.4-3.3-7.9-5.6-0.1-0.2-0.4 0.1-0.2 0.2 2.4 2.4 4.6 5 8 5.9q-0.5 2.1-1 4.2c-2.8-0.8-5.6-2.8-7.4-5.1-0.1-0.2-0.4 0-0.2 0.2 1.9 2.5 4.6 4.4 7.5 5.4q-0.5 2.2-1.1 4.5c-2.9-0.5-5.2-2.3-6.9-4.6-0.1 0-0.2 0-0.1 0.1 1.5 2.2 3.9 4.7 6.8 5q-0.1 0.7-0.3 1.4-0.1 0.5-0.3 0.9c-2.1-0.6-4.2-1.4-6-2.9 0 0-0.1 0 0 0.1 1.7 1.5 3.7 2.6 5.9 3.3q-0.3 1.3-0.7 2.7c-0.6-0.2-1.1-0.5-1.7-0.7-1.1-0.3-1.8-1-2.7-1.6-0.1 0-0.2 0.1-0.1 0.1 0.8 0.6 1.4 1.3 2.3 1.6 0.7 0.3 1.4 0.6 2.1 0.9-1 3.8-1.9 7.7-1.4 11.3 0.1 0.8 1.4 1 1.6 0.1 0.6-2.5 0.6-5.3 0.9-8z"/>
					</g>
					<g id="Layer">
						<path id="Layer" class="s31" d="m358.3 334.8c2 8.3 8.4 20.9-0.6 27.6-2.4 1.8-5.9 1.2-8.5-0.2-3.3-1.9-6.5-7.6-8.1-11-1.2-2.7-1.7-6.1-2.6-8.9-1.1-3.1-2.2-6.1-3.2-9.2-3.7-11.1-2.3-22.5 4.6-32.1 2.3 3.1 5.3 5.3 8.3 7.9 1.3 1.3 2.7 2.6 3.9 4 2 2.4 2.4 5.7 3 8.7 0.8 4.4 2.2 8.8 3.2 13.2z"/>
						<path id="Layer" class="s30" d="m356.1 363.5q-0.3-1-0.6-2c1.2-0.6 2.1-1.9 2.9-2.8 1.3-1.8 2.1-3.7 2.8-5.7 0-0.1-0.1-0.2-0.2-0.1-0.8 1.8-1.7 3.6-3 5.1-0.7 0.8-1.7 2.1-2.7 2.8q-0.4-1.2-0.7-2.5c1.1-0.7 1.9-2 2.7-3.1 1.2-1.9 2.1-4 3.1-6.1 0 0 0 0 0 0-1.6 2.9-3.2 6.7-6 8.7q-0.4-1.6-0.8-3.1 0-0.1 0-0.2c3.1-2.5 4.2-6.4 5.9-10 0.1 0 0-0.1-0.1 0-1.7 3.3-3.1 6.9-5.9 9.4q-0.5-2.2-1-4.4c2.7-2.7 4.4-5.8 5.4-9.5 0 0-0.1 0-0.1 0-1.2 3.5-3.1 6.1-5.5 8.9q-0.4-2.2-0.9-4.4c1.1-1.3 2.3-2.4 3.2-3.9 0.9-1.5 1.5-3.1 1.7-4.8 0-0.1-0.1-0.1-0.1 0-0.6 3.4-3 5.5-5 8.1q-0.4-2-1-4.1c2.2-2.9 4.7-5.9 4.9-9.8 0 0-0.1 0-0.1 0-0.4 3.7-2.9 6.3-5 9.2q-0.1-0.4-0.2-0.7-0.5-1.9-1.1-3.7c1.4-1.5 2.6-3.2 3.6-4.9 0.8-1.2 1.6-2.4 1.8-3.9 0 0-0.1-0.1-0.1 0-0.6 3-3.4 5.9-5.4 8.2q-0.6-1.8-1.2-3.7c2.1-3 4.9-5.5 5.3-9.4 0-0.1-0.2-0.1-0.2 0-0.5 3.6-3.3 6-5.2 8.8q-0.4-1.1-0.7-2.3c2.5-2.5 4.9-6.7 5.2-10.2 0-0.2-0.3-0.3-0.3-0.1-0.5 3.2-2.6 7.4-5.1 9.7q-0.6-1.9-1.1-3.8 0.1 0 0-0.1c1.2-1 2.1-2.6 3-3.9 1-1.6 1.9-3.2 2.1-5.1 0-0.2-0.3-0.2-0.3 0-0.3 3.1-2.7 6.2-5 8.3q-0.1-0.7-0.3-1.3-0.3-1.1-0.5-2.1c0.7-1.3 1.9-2.3 2.7-3.6 0.6-1.1 1-2.3 1.5-3.6 0-0.1-0.2-0.2-0.2 0-0.6 1.5-1.3 3-2.3 4.4-0.6 0.7-1.3 1.4-1.9 2.1q-0.4-1.7-0.8-3.4 0 0 0 0 0.1 0 0.1 0 0.1 0 0.1-0.1c1.4-1.1 1.9-2.9 2.4-4.5 0 0-0.1 0-0.1 0-0.6 1.5-1.3 3.1-2.5 4.2q0 0 0 0 0 0-0.1 0-0.3-1.4-0.7-2.8c0.1 0 0.1-0.2 0.1-0.3 0.5-0.8 0.9-1.9 1.3-2.8 0-0.1-0.1-0.1-0.2-0.1-0.4 1-0.8 1.8-1.4 2.6q-0.8-2.9-1.9-5.6c-0.1-0.2-0.3-0.1-0.2 0.1q0.9 2.7 1.6 5.4c-1.3-0.7-2.7-1.3-3.8-2.3 0-0.1-0.1 0-0.1 0 0.6 0.7 1.4 1.2 2.1 1.7 0.6 0.4 1.3 1 2 1.3q0.4 1.4 0.7 2.9c-1 0.3-2 0.6-3.2 0.2-1.4-0.4-2.5-1.3-3.2-2.6-0.1-0.2-0.4 0-0.3 0.1 0.7 1.2 1.7 2.1 3 2.7 1.3 0.5 2.5 0.3 3.8 0q0.4 1.7 0.8 3.5c-1.1-0.2-2.3-0.5-3.4-0.7-1.8-0.5-3.2-1.4-4.9-2-0.1-0.1-0.3 0.2-0.1 0.2 1.6 0.7 2.9 1.6 4.6 2 1.2 0.4 2.6 0.8 3.9 0.9q0 0.1 0 0.2 0 0 0 0c0 0.1 0 0.2 0.1 0.3q0.4 1.6 0.8 3.2 0 0.1 0 0.2c-2.8 0.1-7.1-0.2-8.7-2.7-0.2-0.3-0.5 0-0.3 0.2 2.1 2.8 6.1 2.5 9.1 3.1q0.5 1.9 1 3.7c-1.7 0.2-3.5 0.2-5.2-0.2-1.6-0.4-3.7-0.7-4.9-1.9 0 0-0.1 0 0 0.1 1.1 1.2 3 1.4 4.5 1.9 1.9 0.6 3.8 1 5.7 0.7q0 0.1 0.1 0.1 0.3 1.2 0.7 2.4c-3 1-7.9 0.7-10.3-0.7q-0.1 0 0 0c1.7 1.2 3.6 1.4 5.7 1.5 1.5 0 3.2 0.1 4.7-0.4q0.6 2.1 1.2 4.2c-1.4 0.2-2.8 0.5-4.2 0.6-2.2 0.1-4.1-0.5-5.9-1.6-0.1-0.1-0.3 0.1-0.2 0.1 3.4 2.2 6.7 1.8 10.5 1.5q0.5 1.7 1 3.5c-2.9 0.7-7.2 0.7-9.6-1-0.2-0.1-0.4 0.1-0.2 0.3 1.5 1.1 3.5 1.3 5.3 1.4 1.4 0 3.3 0.2 4.6-0.3q0.1 0.1 0.1 0.2 0.7 2.5 1.2 5.1c-3.3 0.6-6.3-0.7-9.5-1.8-0.2 0-0.3 0.3-0.1 0.4 3.3 1.1 6.3 2.5 9.8 1.9q0.4 2.1 0.9 4.2c-2.9 0.5-6.3-0.2-9-1.5-0.1-0.1-0.3 0.2-0.1 0.3 2.8 1.5 6.1 2 9.2 1.7q0.4 2.3 0.8 4.6c-2.8 0.8-5.6 0.1-8.2-1.2 0-0.1-0.1 0 0 0.1 2.3 1.3 5.6 2.6 8.3 1.6q0.2 0.7 0.3 1.5 0.1 0.4 0.2 0.9c-2.3 0.3-4.5 0.4-6.7-0.1-0.1 0-0.1 0-0.1 0.1 2.2 0.6 4.6 0.7 6.8 0.4q0.3 1.4 0.5 2.8c-0.6 0-1.2 0-1.8 0.1-1.1 0.1-2.1-0.2-3.2-0.3-0.1 0-0.1 0.1 0 0.2 1 0.1 1.8 0.5 2.8 0.4 0.8 0 1.5 0 2.3 0 0.6 3.8 1.5 7.7 3.4 10.8 0.5 0.6 1.8 0.3 1.6-0.6-0.5-2.6-1.7-5.1-2.6-7.6z"/>
					</g>
					<g id="Layer">
						<path id="Layer" class="s32" d="m377.4 328.4c0.5 10.5 5.4 27.4-7.1 33.4-3.4 1.6-7.5 0-10.3-2.3-3.6-3-6.2-10.6-7.3-15.1-0.9-3.6-0.7-7.8-1.2-11.5-0.5-4-1.2-8-1.7-11.9-1.9-14.4 2.4-27.9 13-38 2.1 4.4 5.3 7.7 8.3 11.6 1.4 1.8 2.7 3.7 3.8 5.7 1.9 3.4 1.7 7.5 1.6 11.3 0 5.6 0.7 11.2 0.9 16.8z"/>
						<path id="Layer" class="s30" d="m368.1 362.7q-0.2-1.3-0.3-2.6c1.6-0.4 3-1.7 4.1-2.7 2-1.8 3.5-4 4.8-6.2 0.1-0.2-0.1-0.3-0.2-0.2-1.4 2-2.9 3.9-4.8 5.5-1.1 0.8-2.6 2.2-4 2.7q-0.2-1.5-0.3-3.1c1.6-0.6 2.8-2 4-3.2 2-2 3.6-4.4 5.3-6.6 0-0.1-0.1-0.1-0.1-0.1-2.6 3.2-5.4 7.4-9.3 9.2q-0.1-2-0.2-3.9 0-0.1 0-0.2c4.4-2.4 6.7-6.9 9.5-10.8 0.1-0.1 0-0.2-0.1-0.1-2.8 3.7-5.4 7.7-9.4 10.1q-0.1-2.8-0.2-5.6c3.9-2.6 6.7-6 8.8-10.2 0-0.1-0.1-0.2-0.1-0.1-2.3 4-5.3 6.7-8.7 9.5q-0.1-2.7-0.2-5.5c1.6-1.4 3.4-2.4 4.8-4.1 1.4-1.6 2.6-3.3 3.2-5.4 0.1-0.1-0.1-0.1-0.1 0-1.6 4-4.9 6-7.9 8.7q-0.1-2.6-0.3-5.2c3.3-3.1 7-6.1 8.2-10.8 0 0 0-0.1-0.1 0-1.3 4.3-5 7-8.2 10q0-0.5-0.1-0.9-0.2-2.4-0.4-4.8c2-1.4 3.8-3.2 5.5-5.1 1.1-1.2 2.4-2.6 3-4.2 0-0.2-0.1-0.2-0.2-0.1-1.3 3.5-5.4 6.4-8.4 8.7q-0.3-2.4-0.5-4.8c3.1-3.2 7.2-5.5 8.5-10.2 0-0.1-0.2-0.2-0.2-0.1-1.5 4.4-5.4 6.6-8.4 9.6q-0.2-1.5-0.3-3c3.7-2.5 7.5-7.1 8.7-11.2 0.1-0.3-0.3-0.4-0.4-0.2-1.3 3.8-4.8 8.4-8.4 10.6q-0.2-2.4-0.4-4.8 0-0.1 0-0.1c1.7-1 3.2-2.8 4.5-4.1 1.6-1.7 3.1-3.5 3.7-5.7 0.1-0.2-0.3-0.3-0.3-0.1-1 3.7-4.7 6.9-8 9q0-0.9-0.1-1.8 0-1.3-0.1-2.6c1.2-1.4 2.9-2.3 4.1-3.7 1-1.3 1.8-2.6 2.6-4 0.1-0.2-0.1-0.3-0.2-0.2-1.1 1.8-2.3 3.5-3.8 4.9-0.9 0.8-1.9 1.3-2.7 2.2q-0.1-2.2-0.2-4.4 0 0 0 0 0 0 0.1 0 0.1 0 0.2-0.1c1.8-1 2.9-3.1 3.9-4.8 0-0.1-0.1-0.1-0.1-0.1-1.1 1.6-2.3 3.5-4 4.5q0 0 0 0-0.1 0-0.2 0-0.1-1.8-0.2-3.5c0.1-0.1 0.2-0.2 0.1-0.4 0.9-0.9 1.6-2.1 2.3-3.2 0 0-0.1-0.1-0.1 0-0.7 1-1.5 1.9-2.4 2.7-0.2-2.4-0.5-4.8-1-7.2 0-0.2-0.3-0.1-0.3 0.1 0.4 2.3 0.6 4.6 0.8 7-1.5-1.2-3-2.3-4.1-3.8-0.1-0.1-0.2 0-0.1 0.1 0.5 0.9 1.3 1.6 2.1 2.4 0.7 0.7 1.3 1.5 2.1 2.1q0.2 1.9 0.2 3.7c-1.3 0.2-2.6 0.2-3.9-0.5-1.7-0.8-2.8-2.2-3.4-3.9-0.1-0.2-0.4-0.1-0.3 0.1 0.5 1.6 1.6 2.9 3 3.9 1.5 1 3 1 4.7 1q0 2.1 0.1 4.3c-1.4-0.4-2.7-1.1-4-1.6-2.1-1-3.5-2.4-5.4-3.6-0.2-0.1-0.4 0.2-0.2 0.3 1.8 1.2 3.1 2.5 5.1 3.5 1.4 0.7 3 1.6 4.5 1.9q0 0.2 0 0.3 0 0 0 0c-0.1 0.1 0 0.3 0 0.3q0.1 2.1 0.2 4.2 0 0.1 0 0.3c-3.4-0.7-8.6-1.9-9.9-5.4-0.2-0.3-0.7-0.1-0.5 0.2 1.9 3.8 6.8 4.5 10.4 5.9q0.2 2.4 0.3 4.7c-2.1-0.2-4.2-0.5-6.2-1.4-1.8-0.9-4.3-1.8-5.5-3.5 0 0-0.1 0-0.1 0.1 1.1 1.7 3.4 2.5 5.1 3.4 2.2 1.2 4.3 2.1 6.8 2.1q0 0.1 0 0.2 0.1 1.5 0.3 3c-3.8 0.7-9.8-0.9-12.4-3.2q0 0 0 0c1.9 1.8 4.1 2.6 6.6 3.1 1.9 0.4 3.9 0.9 5.8 0.6q0.3 2.8 0.6 5.5c-1.8-0.2-3.6 0-5.3-0.3-2.7-0.3-4.9-1.6-6.8-3.3-0.2-0.1-0.4 0-0.2 0.1 3.6 3.5 7.6 3.8 12.4 4.2q0.2 2.3 0.4 4.5c-3.8 0.2-8.9-0.8-11.5-3.4-0.2-0.2-0.5 0.1-0.3 0.3 1.6 1.7 3.9 2.4 6.2 2.9 1.6 0.4 3.9 1.1 5.6 0.8q0 0.1 0 0.1 0.3 3.3 0.4 6.6c-4.2 0-7.6-2.3-11.2-4.4-0.2-0.1-0.4 0.3-0.2 0.4 3.7 2.2 7 4.6 11.4 4.6q0.1 2.7 0.1 5.3c-3.6-0.1-7.6-1.6-10.5-3.8-0.2-0.2-0.4 0.1-0.2 0.3 3.1 2.4 6.9 3.8 10.7 4.2q0 2.9 0 5.7c-3.6 0.4-6.8-1.1-9.7-3.4 0 0-0.1 0.1-0.1 0.2 2.6 2.1 6.3 4.5 9.8 3.9q0 0.9 0 1.8 0 0.6 0 1.2c-2.8-0.2-5.5-0.5-8.1-1.7-0.1 0-0.1 0.1-0.1 0.1 2.6 1.3 5.4 2 8.2 2.1q0 1.7-0.1 3.5c-0.7-0.1-1.4-0.3-2.2-0.3-1.4-0.1-2.4-0.7-3.8-1.1-0.1 0-0.2 0.2 0 0.2 1.1 0.4 2 1.1 3.3 1.2 0.9 0.1 1.8 0.3 2.7 0.5-0.1 4.7 0.1 9.8 1.7 13.9 0.4 0.9 2.1 0.8 2.1-0.3-0.1-3.3-0.9-6.6-1.4-9.9z"/>
					</g>
					<path id="Layer" class="s33" d="m384.3 366.7l-0.4 8.5-0.8 13.3-1.1 21.9h-29.6l-1.2-21.9-0.8-13.3-0.4-8.5z"/>
					<path id="Layer" class="s28" d="m383.9 375.2l-0.1 1.7-0.1 1.8-0.6 9.8h-31.9l-0.6-9.8-0.1-1.8-0.1-1.7z"/>
					<path id="Layer" class="s33" d="m383.8 376.9l-0.1 1.8h-33.1l-0.1-1.8z"/>
				</g>
			</g>
		</g>
	</g>
</svg>